HIERARCHY
ROOT hip
{
	OFFSET 0.000000 0.000000 0.000000 
	CHANNELS 6 Xposition Yposition Zposition Xrotation Zrotation Yrotation
	JOINT abdomen
	{
		OFFSET 0.000000 3.402643 0.000000 
		CHANNELS 3 Xrotation Zrotation Yrotation
		JOINT chest
		{
			OFFSET 0.000000 8.438565 -0.680529 
			CHANNELS 3 Xrotation Zrotation Yrotation
			JOINT neck
			{
				OFFSET 0.000000 10.207942 -0.272212 
				CHANNELS 3 Xrotation Zrotation Yrotation
				JOINT head
				{
					OFFSET 0.000000 3.130431 0.000000 
					CHANNELS 3 Xrotation Zrotation Yrotation
					End Site
					{
						OFFSET 0.000000 3.130435 0.000000 
					}
				}
			}
			JOINT lCollar
			{
				OFFSET 3.470700 6.669187 -0.816635 
				CHANNELS 3 Yrotation Zrotation Xrotation
				JOINT lShldr
				{
					OFFSET 3.198488 0.000000 0.000000 
					CHANNELS 3 Zrotation Yrotation Xrotation
					JOINT lForeArm
					{
						OFFSET 10.139888 0.000000 0.000000 
						CHANNELS 3 Yrotation Zrotation Xrotation
						JOINT lHand
						{
							OFFSET 8.370511 0.000000 0.000000 
							CHANNELS 3 Zrotation Yrotation Xrotation
							End Site
							{
								OFFSET 4.083176 0.000000 0.000000 
							}
						}
					}
				}
			}
			JOINT rCollar
			{
				OFFSET -3.470700 6.669187 -0.816635 
				CHANNELS 3 Yrotation Zrotation Xrotation
				JOINT rShldr
				{
					OFFSET -3.198488 0.000000 0.000000 
					CHANNELS 3 Zrotation Yrotation Xrotation
					JOINT rForeArm
					{
						OFFSET -10.139888 0.000000 0.000000 
						CHANNELS 3 Yrotation Zrotation Xrotation
						JOINT rHand
						{
							OFFSET -8.370511 0.000000 0.000000 
							CHANNELS 3 Zrotation Yrotation Xrotation
							End Site
							{
								OFFSET -4.083176 0.000000 0.000000 
							}
						}
					}
				}
			}
		}
	}
	JOINT lThigh
	{
		OFFSET 5.308129 -1.633274 1.361059 
		CHANNELS 3 Xrotation Zrotation Yrotation
		JOINT lShin
		{
			OFFSET -2.041588 -20.007561 0.000000 
			CHANNELS 3 Xrotation Zrotation Yrotation
			JOINT lFoot
			{
				OFFSET 0.000000 -19.190928 -1.224953 
				CHANNELS 3 Xrotation Yrotation Zrotation
				End Site
				{
					OFFSET 0.000000 -2.449906 4.627600 
				}
			}
		}
	}
	JOINT rThigh
	{
		OFFSET -5.308129 -1.633274 1.361059 
		CHANNELS 3 Xrotation Zrotation Yrotation
		JOINT rShin
		{
			OFFSET 2.041588 -20.007561 0.000000 
			CHANNELS 3 Xrotation Zrotation Yrotation
			JOINT rFoot
			{
				OFFSET 0.000000 -19.190928 -1.224953 
				CHANNELS 3 Xrotation Yrotation Zrotation
				End Site
				{
					OFFSET 0.000000 -2.449906 4.627600 
				}
			}
		}
	}
}
MOTION
Frames: 8
Frame Time: 0.033333
-8.543338 54.317249 29.590340 -28.362125 -38.851395 67.687553 0.000000 0.000000 0.000000 11.651254 -20.029446 1.847176 4.018257 18.851933 1.436055 -10.177341 5.119569 -20.642586 0.494327 11.362941 24.548349 -76.572983 23.037226 -11.468019 -90.828613 19.306995 61.908978 2.314993 6.391500 -61.342716 -34.139797 -29.120655 5.229323 55.237877 13.559937 61.251915 60.702583 -52.203571 48.917912 36.559177 -6.053046 -77.946114 -44.646420 41.204433 27.691717 48.313068 11.987200 0.570268 18.759119 -25.766508 -21.970238 -6.735799 -11.147471 -2.042413 94.034790 20.701714 12.236862 46.703709 30.266747 41.659088 
-8.767504 54.028324 28.440382 -20.908808 -37.583687 55.559692 0.000000 0.000000 0.000000 9.340559 -17.807491 2.408899 5.855099 14.811887 1.092036 -9.319230 5.772170 -16.727633 3.576165 9.337425 23.953131 -75.428665 21.540541 -12.118373 -88.853210 16.231331 61.420223 3.483299 8.090590 -61.499889 -32.138000 -29.012426 6.586555 51.648453 18.171783 58.498810 66.227310 -56.557419 47.385799 34.075779 -10.988975 -78.088493 -39.052204 39.275097 28.236153 49.678898 11.303216 0.335393 17.580189 -23.317572 -23.898359 -6.879939 -7.474964 -0.866308 87.984261 23.641773 12.597812 36.422749 32.630493 69.280670 
-8.682953 53.680752 27.266645 -13.681285 -34.639225 42.656620 0.000000 0.000000 0.000000 7.032492 -16.153093 2.834311 8.416708 10.477651 0.745071 -8.497836 6.714049 -11.712106 7.395700 6.654359 23.538330 -72.463593 19.844479 -13.992300 -86.414772 12.934561 60.953796 4.045406 9.795174 -61.624119 -28.578915 -28.843664 8.880177 47.829681 22.847980 55.589523 73.644737 -60.505810 48.469696 32.700821 -14.692297 -78.213722 -33.730553 36.542755 28.118837 52.212357 10.315118 -0.003403 16.295994 -20.178169 -27.658186 -5.091349 -5.286443 -0.314077 81.537834 24.325006 12.267971 31.868345 28.927969 62.750278 
-8.211824 53.300777 26.196667 -7.475162 -29.715048 29.710991 0.000000 0.000000 0.000000 4.984510 -15.408607 3.067892 10.874926 6.240074 0.413033 -7.698027 7.154665 -6.269377 11.992069 3.343454 23.527122 -67.994469 18.634737 -16.846394 -84.174034 9.975798 60.628716 3.251590 11.380029 -61.798515 -23.445423 -27.270254 12.515491 42.156185 26.759367 51.834442 84.863243 -63.923412 54.527176 31.680241 -17.250734 -78.299561 -27.090139 32.676117 27.578352 53.997688 7.732352 -0.641234 15.022048 -16.668301 -29.380196 -1.277961 -5.258426 -0.392523 74.218460 23.789263 11.462871 35.805698 17.968790 40.638351 
-7.513987 52.952599 25.282862 -3.071006 -23.934372 17.610331 0.000000 0.000000 0.000000 3.397672 -14.918815 3.223823 12.574539 2.587883 0.137020 -7.306255 7.479679 -0.836998 16.184114 -0.233030 24.154736 -62.717304 18.233824 -20.145924 -82.256393 8.289233 60.406406 2.270722 12.939603 -61.926136 -17.710106 -24.321152 16.462605 35.356819 28.402699 48.031776 101.134506 -66.246597 67.098396 29.921249 -18.417524 -78.278122 -20.302877 27.724195 26.329489 53.781635 4.290123 -1.392696 14.094649 -13.210875 -29.228258 3.767089 -6.667042 -0.920399 66.389740 23.053675 10.534114 36.224541 12.281407 42.155014 
-6.887244 52.681110 24.443890 -0.090086 -18.930901 6.453260 0.000000 0.000000 0.000000 2.232906 -13.764336 3.498226 13.584599 -0.400390 -0.087957 -7.171084 8.213261 3.937373 19.322248 -3.210971 25.000000 -57.537739 18.176180 -23.191807 -79.934746 8.213178 58.976089 2.107897 14.431575 -61.878780 -11.750141 -21.011852 19.890997 30.207132 26.987055 45.933846 120.124588 -66.732750 83.141502 27.828098 -19.618380 -78.178497 -16.092310 23.351124 24.904375 52.961578 1.733775 -1.940547 14.073983 -10.393463 -27.610769 8.592504 -7.528863 -1.293800 58.009056 21.968874 9.401071 35.352596 3.886677 44.398758 
-6.409729 52.458145 23.583088 2.192575 -14.817862 -4.062253 0.000000 0.000000 0.000000 1.682382 -12.170888 3.824873 13.978023 -2.861298 -0.264318 -6.969856 9.159510 8.004202 21.550617 -4.702980 24.993437 -53.362381 18.261873 -25.474247 -76.654625 9.293907 55.216602 1.874165 15.434511 -61.809757 -6.035524 -17.760370 22.512062 27.966778 23.494553 45.776268 -44.241112 -114.861282 -83.958839 25.661732 -21.165733 -78.036423 -14.461678 20.462751 23.789124 52.578739 0.239707 -2.217289 15.029623 -9.857464 -26.820345 12.485940 -7.761434 -1.422998 49.778252 20.289762 8.149984 34.897182 -5.340827 48.996567 
-5.951520 52.239151 22.719927 3.834273 -10.776648 -14.311029 0.000000 0.000000 0.000000 1.721976 -10.978663 4.077431 14.030806 -4.990100 -0.421728 -6.700600 9.801834 11.815769 23.164070 -4.655523 24.997332 -50.308838 19.575035 -27.476822 -73.458488 10.158161 51.637726 0.888541 16.360455 -61.775440 -0.900801 -15.061228 24.295334 28.512781 19.474590 46.919449 -36.414780 -117.448982 -78.046799 23.324301 -22.978325 -77.822319 -14.238532 18.135035 22.813417 52.679817 -0.159423 -2.332647 15.952600 -11.450658 -27.079384 15.335364 -8.443840 -1.680814 42.265026 18.086990 6.904901 34.491539 -13.438926 52.848915 
